<svg xmlns="http://www.w3.org/2000/svg" width="264.121" height="250.778" viewBox="0 0 264.121 250.778">
  <g id="Group_5439" data-name="Group 5439" transform="translate(-403.429 -1158.151) rotate(45)">
    <path id="Path_7350" data-name="Path 7350" d="M2.263,21.634c11.371-29.609,55.06-28.022,67.574-.151,3.8,8.466,4.562,18.555,10.756,25.466,8.293,9.252,23.045,9.013,34.779,4.93S137.79,40.665,149.968,38.2c21.288-4.308,38.947,14.121,44.918,33.054,6.566,20.821.752,44.531-12.921,61.551s-34.436,27.576-55.978,31.12C101.9,167.886,75.7,163,56.943,147.385a65.376,65.376,0,0,1-21.214-33.5c-2.671-10.29-.837-21.672-4.137-31.716-3.427-10.426-14.176-14.6-21.07-22.228C2.553,51.118-1.728,38.951.66,27.135A34.172,34.172,0,0,1,2.263,21.634Z" transform="translate(1405.381 586.162) rotate(167)" fill="none" stroke="#d7c7ff" stroke-width="1" opacity="0.927"/>
    <path id="Path_7351" data-name="Path 7351" d="M2.263,21.634c11.371-29.609,55.06-28.022,67.574-.151,3.8,8.466,4.562,18.555,10.756,25.466,8.293,9.252,23.045,9.013,34.779,4.93S137.79,40.665,149.968,38.2c21.288-4.308,38.947,14.121,44.918,33.054,6.566,20.821.752,44.531-12.921,61.551s-34.436,27.576-55.978,31.12C101.9,167.886,75.7,163,56.943,147.385a65.376,65.376,0,0,1-21.214-33.5c-2.671-10.29-.837-21.672-4.137-31.716-3.427-10.426-14.176-14.6-21.07-22.228C2.553,51.118-1.728,38.951.66,27.135A34.172,34.172,0,0,1,2.263,21.634Z" transform="translate(1395.813 588.306) rotate(167)" fill="#f1ebff" opacity="0.927"/>
  </g>
</svg>
